<?xml version="1.0" encoding="iso-8859-1"?>
<!-- Generator: Adobe Illustrator 19.0.0, SVG Export Plug-In . SVG Version: 6.00 Build 0)  -->
<svg xmlns="http://www.w3.org/2000/svg" xmlns:xlink="http://www.w3.org/1999/xlink" version="1.1" id="Layer_1" x="0px" y="0px" viewBox="0 0 512 512" style="enable-background:new 0 0 512 512;" xml:space="preserve" width="512px" height="512px">
<g>
	<g>
		<polygon points="386.739,68.164 386.739,82.933 429.581,82.933 429.581,163.537 444.35,163.537 444.35,68.164   " fill="#5b5b5a"/>
	</g>
</g>
<g>
	<g>
		<rect x="429.578" y="183.906" width="14.769" height="16.295" fill="#5b5b5a"/>
	</g>
</g>
<g>
	<g>
		<path d="M490.11,57.474V0H65.73v57.474h20.299v33.805c-12.643,14.563-20.322,33.547-20.322,54.302s7.679,39.738,20.322,54.302    v30.473c-38.277,21.844-64.139,63.05-64.139,110.186v88.063h187.028L172.16,512h61.197l45.429-103.07L324.216,512h61.197    l-50.245-113.994H490.11v-57.473h-20.299V57.474H490.11z M148.664,77.392c37.4,0,67.852,30.269,68.173,67.595    c-43.486-1.415-69.961-15.569-81.154-23.183c4.636-5.756,6.676-9.84,6.901-10.306l-13.288-6.445    c-0.123,0.253-11.806,23.509-48.737,37.203C82.3,106.195,112.18,77.392,148.664,77.392z M320.291,213.768H195.832    c21.604-14.991,35.789-39.959,35.789-68.189c0-45.743-37.215-82.957-82.957-82.957c-17.82,0-34.331,5.666-47.866,15.266V57.474    h354.244v283.054H222.52v-41.217h97.771c23.583,0,42.772-19.187,42.772-42.772C363.063,232.956,343.875,213.768,320.291,213.768z     M81.552,157.566c20.132-6.794,34.264-16.287,43.808-24.903c11.878,8.606,41.008,25.289,90.007,27.061    c-6.531,30.833-33.953,54.045-66.703,54.045C115.156,213.768,87.236,189.466,81.552,157.566z M183.534,228.537l-34.87,39.975    l-31.049-35.594c9.863-2.849,20.28-4.382,31.049-4.382H183.534z M111.028,219.471c-3.478,1.083-6.887,2.321-10.23,3.689v-9.888    C104.044,215.574,107.461,217.647,111.028,219.471z M207.751,276.481v137.354H89.576v-69.503H74.807v69.503H36.659v-73.294    c0-45.417,27.174-84.607,66.117-102.167l38.503,44.139v53.393h14.769v-53.393l47.084-53.977h117.158    c15.441,0,28.003,12.562,28.003,28.002c0,15.441-12.562,28.003-28.003,28.003H222.52v-8.061H207.751z M223.726,497.231H194.81    l43.736-99.225h28.915L223.726,497.231z M362.763,497.231h-28.916l-43.736-99.225h28.916L362.763,497.231z M475.341,355.302    v27.935H328.658h-38.547h-22.65h-38.546h-6.394v-27.935H475.341z M86.029,42.705h-5.53V14.769h394.842v27.935h-5.53H86.029z" fill="#5b5b5a"/>
	</g>
</g>
<g>
	<g>
		<rect x="141.282" y="351.951" width="14.769" height="18.938" fill="#5b5b5a"/>
	</g>
</g>
<g>
	<g>
		<path d="M371.637,100.027c-14.644,0-26.559,11.914-26.559,26.559c0,2.156,0.265,4.252,0.752,6.26l-40.949,23.434    c-4.782-4.631-11.291-7.489-18.458-7.489c-14.644,0-26.559,11.914-26.559,26.559c0,14.644,11.915,26.558,26.559,26.558    s26.559-11.914,26.559-26.558c0-2.156-0.265-4.252-0.752-6.26l40.949-23.434c4.782,4.631,11.291,7.489,18.458,7.489    c14.645,0,26.559-11.914,26.559-26.559C398.196,111.941,386.281,100.027,371.637,100.027z M286.425,187.139    c-6.501,0-11.79-5.288-11.79-11.789s5.288-11.79,11.79-11.79s11.79,5.289,11.79,11.79    C298.213,181.851,292.925,187.139,286.425,187.139z M371.638,138.376c-6.501,0-11.79-5.288-11.79-11.79    c0-6.5,5.288-11.79,11.79-11.79c6.501,0,11.79,5.289,11.79,11.79C383.428,133.087,378.14,138.376,371.638,138.376z" fill="#5b5b5a"/>
	</g>
</g>
<g>
	<g>
		<path d="M405.914,230.674c-14.644,0-26.559,11.914-26.559,26.559c0,14.644,11.915,26.559,26.559,26.559    s26.559-11.914,26.559-26.559C432.473,242.588,420.558,230.674,405.914,230.674z M405.914,269.023    c-6.501,0-11.79-5.289-11.79-11.79s5.288-11.79,11.79-11.79c6.5,0,11.79,5.289,11.79,11.79S412.415,269.023,405.914,269.023z" fill="#5b5b5a"/>
	</g>
</g>
<g>
</g>
<g>
</g>
<g>
</g>
<g>
</g>
<g>
</g>
<g>
</g>
<g>
</g>
<g>
</g>
<g>
</g>
<g>
</g>
<g>
</g>
<g>
</g>
<g>
</g>
<g>
</g>
<g>
</g>
</svg>
