<?xml version="1.0" encoding="iso-8859-1"?>
<!-- Generator: Adobe Illustrator 19.0.0, SVG Export Plug-In . SVG Version: 6.00 Build 0)  -->
<svg xmlns="http://www.w3.org/2000/svg" xmlns:xlink="http://www.w3.org/1999/xlink" version="1.1" id="Layer_1" x="0px" y="0px" viewBox="0 0 512 512" style="enable-background:new 0 0 512 512;" xml:space="preserve" width="512px" height="512px">
<g>
	<g>
		<polygon points="323.234,437.555 323.234,471.861 224.988,471.861 224.988,486.63 338.003,486.63 338.003,437.555   " fill="#5b5b5a"/>
	</g>
</g>
<g>
	<g>
		<rect x="183.67" y="471.857" width="18.543" height="14.769" fill="#5b5b5a"/>
	</g>
</g>
<g>
	<g>
		<polygon points="230.589,63.477 230.589,78.246 262.206,78.246 262.206,86.504 276.975,86.504 276.975,63.477   " fill="#5b5b5a"/>
	</g>
</g>
<g>
	<g>
		<path d="M201.571,27.873c-9.715,0-17.618,7.904-17.618,17.619s7.904,17.619,17.618,17.619c9.714,0,17.619-7.904,17.619-17.619    S211.287,27.873,201.571,27.873z M201.571,48.342c-1.571,0-2.848-1.278-2.848-2.849s1.278-2.849,2.848-2.849    c1.57,0,2.849,1.278,2.849,2.849S203.143,48.342,201.571,48.342z" fill="#5b5b5a"/>
	</g>
</g>
<g>
	<g>
		<path d="M68.539,168.389v69.621h69.62v-69.621H68.539z M123.39,223.241H83.308v-40.083h40.082V223.241z" fill="#5b5b5a"/>
	</g>
</g>
<g>
	<g>
		<path d="M68.539,265.765v69.62h69.62v-69.62H68.539z M123.39,320.616H83.308v-40.082h40.082V320.616z" fill="#5b5b5a"/>
	</g>
</g>
<g>
	<g>
		<path d="M68.539,363.141v69.621h69.62v-69.621H68.539z M123.39,417.993H83.308V377.91h40.082V417.993z" fill="#5b5b5a"/>
	</g>
</g>
<g>
	<g>
		<rect x="169.826" y="195.814" width="139.108" height="14.769" fill="#5b5b5a"/>
	</g>
</g>
<g>
	<g>
		<polygon points="413.063,162.694 402.618,173.137 411.88,182.399 381.361,212.919 391.805,223.362 432.768,182.399   " fill="#5b5b5a"/>
	</g>
</g>
<g>
	<g>
		
			<rect x="365.331" y="224.998" transform="matrix(0.707 -0.7072 0.7072 0.707 -55.2538 331.3968)" width="13.985" height="14.769" fill="#5b5b5a"/>
	</g>
</g>
<g>
	<g>
		<path d="M474.17,119.301l-5.749-5.749c-15.873-15.871-41.699-15.871-57.572,0l-47.477,47.477V76.804h-61.027V38.108h-55.873    c-1.517-9.344-5.907-17.957-12.732-24.784C225.147,4.732,213.724,0,201.571,0c-12.152,0-23.576,4.732-32.168,13.324    c-6.825,6.826-11.216,15.44-12.732,24.784H92.054v38.696H25.926V512h337.445V287.671l110.798-110.798    C490.042,161.001,490.042,135.174,474.17,119.301z M106.823,52.877h64.026v-7.385c0-8.207,3.196-15.921,8.998-21.724    c5.802-5.803,13.518-8.999,21.725-8.999s15.921,3.196,21.725,8.999c5.802,5.803,8.998,13.517,8.998,21.724v7.385h55.28v69.001    H106.823V52.877z M348.602,497.231H40.695V91.573h51.359v45.074h210.291V91.573h46.258v84.226L231.21,293.191h-61.386v14.769    h46.617l-5.136,5.136l-22.966,77.471h-18.515v14.769h139.109v-14.769H226.89l47.736-14.151l73.976-73.976V497.231z     M221.406,330.989l35.328,35.327l-50.213,14.885L221.406,330.989z M270.731,359.426l-42.434-42.434l177.027-177.027l42.435,42.435    L270.731,359.426z M463.726,166.43l-5.526,5.526l-42.435-42.435l5.526-5.525c10.114-10.114,26.571-10.114,36.686,0l5.749,5.748    C473.84,139.859,473.84,156.317,463.726,166.43z" fill="#5b5b5a"/>
	</g>
</g>
<g>
</g>
<g>
</g>
<g>
</g>
<g>
</g>
<g>
</g>
<g>
</g>
<g>
</g>
<g>
</g>
<g>
</g>
<g>
</g>
<g>
</g>
<g>
</g>
<g>
</g>
<g>
</g>
<g>
</g>
</svg>
