<?xml version="1.0" encoding="iso-8859-1"?>
<!-- Generator: Adobe Illustrator 19.0.0, SVG Export Plug-In . SVG Version: 6.00 Build 0)  -->
<svg xmlns="http://www.w3.org/2000/svg" xmlns:xlink="http://www.w3.org/1999/xlink" version="1.1" id="Layer_1" x="0px" y="0px" viewBox="0 0 512.001 512.001" style="enable-background:new 0 0 512.001 512.001;" xml:space="preserve" width="512px" height="512px">
<g>
	<g>
		<polygon points="276.373,51.365 276.373,66.138 314.072,66.138 314.072,90.728 328.845,90.728 328.845,51.365   " fill="#5b5b5a"/>
	</g>
</g>
<g>
	<g>
		<rect x="314.074" y="108.74" width="14.773" height="13.51" fill="#5b5b5a"/>
	</g>
</g>
<g>
	<g>
		<polygon points="314.072,375.886 314.072,404.135 257.612,404.135 257.612,418.908 328.845,418.908 328.845,375.886   " fill="#5b5b5a"/>
	</g>
</g>
<g>
	<g>
		<rect x="218.591" y="404.131" width="18.01" height="14.773" fill="#5b5b5a"/>
	</g>
</g>
<g>
	<g>
		<rect x="47.201" y="158.633" width="263.186" height="14.773" fill="#5b5b5a"/>
	</g>
</g>
<g>
	<g>
		<rect x="47.201" y="204.715" width="263.186" height="14.773" fill="#5b5b5a"/>
	</g>
</g>
<g>
	<g>
		<path d="M501.554,152.962l-17.12,17.12l-8.478-8.478l4.144-4.144c13.138-13.137,13.138-34.515,0-47.652l-1.252-1.252    c-6.364-6.364-14.826-9.869-23.826-9.869c-9.001,0-17.462,3.505-23.826,9.869l-4.144,4.144l-30.246,30.246V67.644h-42.511v-41.73    H97.744L0,123.659v320.698h42.511v41.73h354.295V240.754l68.704-68.704l8.478,8.478l-75.517,75.517l10.446,10.445l103.083-103.083    L501.554,152.962z M354.294,82.417h27.738v75.303l-27.738,27.738V82.417z M93.416,51.134v68.198H25.218L93.416,51.134z     M14.773,429.584V134.105h93.416V40.688h231.332V200.23l-50.556,50.556H47.201v14.773h226.992l-16.581,16.581    c-2.472,2.472-6.954,7.795-12.335,14.721H47.201v14.773h187.051c-3.927,5.466-7.936,11.272-11.729,17.083    c-7.567,11.593-13.144,21.45-16.576,29.297c-2.355,5.385-4.884,12.36-4.05,18.301L195.211,383l10.446,10.445l6.687-6.688    c0.791,0.111,1.599,0.169,2.421,0.169c5.348,0,11.21-2.175,15.877-4.216c7.846-3.432,17.703-9.01,29.297-16.577    c20.494-13.376,40.94-29.452,46.576-35.089l33.007-33.007v131.546H14.773z M292.091,268.552l28.012,28.013l-24.035,24.035    c-4.58,4.579-22.204,18.48-40.504,30.718c-21.88,14.631-33.916,19.675-38.905,20.678c1.005-4.99,6.048-17.026,20.679-38.904    c12.238-18.301,26.139-35.926,30.718-40.505L292.091,268.552z M382.033,471.313L382.033,471.313H57.284v-26.957h297.012V283.265    l27.738-27.738V471.313z M330.549,286.118l-28.012-28.013l124.515-124.514l14.006,14.006l14.006,14.006L330.549,286.118z     M469.654,147.015l-4.144,4.144l-14.006-14.006l-14.006-14.006l4.144-4.144c3.574-3.574,8.326-5.543,13.379-5.543    c5.054,0,9.806,1.969,13.379,5.543l1.252,1.252C477.031,127.633,477.031,139.637,469.654,147.015z" fill="#5b5b5a"/>
	</g>
</g>
<g>
	<g>
		<path d="M179.492,388.329c-2.507,1.613-5.947,2.083-9.197,1.257c-5.491-1.396-9.151-6.677-13.391-12.793    c-1.803-2.602-3.668-5.292-5.772-7.763c-11.008-12.921-27.201-15.121-42.261-5.743c-2.836,1.766-5.559,3.794-8.19,5.754    c-6.621,4.93-12.875,9.582-19.666,9.303c-6.804-0.287-13.2-4.356-15.554-9.896c-2.216-5.216-1.036-11.086,3.824-19.031    l-12.602-7.708c-2.719,4.446-10.996,17.974-4.819,32.515c4.575,10.768,16.039,18.355,28.531,18.88    c12.04,0.512,21.104-6.252,29.11-12.214c2.501-1.862,4.862-3.62,7.177-5.062c6.211-3.867,15.277-6.525,23.206,2.783    c1.628,1.911,3.206,4.187,4.876,6.598c4.922,7.102,11.048,15.941,21.895,18.697c2.271,0.577,4.574,0.861,6.85,0.861    c5,0,9.871-1.37,13.979-4.014L179.492,388.329z" fill="#5b5b5a"/>
	</g>
</g>
<g>
	<g>
		<path d="M193.783,96.3c-2.32-1.123-4.808-1.965-7.465-2.525c-2.657-0.561-5.145-1.123-7.465-1.684    c-2.319-0.561-4.247-1.29-5.781-2.189c-1.534-0.898-2.301-2.319-2.301-4.266c0-1.946,0.767-3.256,2.301-3.93    c1.534-0.674,3.386-1.01,5.557-1.01c7.393,0,13.493,2.32,18.299,6.96v-12.91c-1.795-1.984-6.173-3.443-13.134-4.378v-12.91    c0-0.225-0.15-0.337-0.449-0.337h-9.767c-0.299,0-0.449,0.15-0.449,0.449v12.685c-2.319,0.86-4.658,2.123-7.016,3.789    c-2.358,1.665-4.042,3.489-5.051,5.473s-1.516,4.453-1.516,7.409c0,2.956,0.767,5.482,2.302,7.578    c2.717,3.712,7.152,6.257,13.303,7.634l7.521,1.683c2.305,0.516,4.228,1.169,5.769,1.959c1.542,0.79,2.313,1.971,2.313,3.543    c0,2.802-1.783,4.748-5.348,5.837c-1.469,0.449-3.728,0.674-6.776,0.674c-4.265,0-8.12-1.01-11.562-3.031    c-3.442-2.02-6.062-4.827-7.858-8.419v15.155c4.64,2.822,9.43,4.954,14.369,6.399l0.111,11.449    c0.002,0.225,0.114,0.337,0.337,0.337h9.767c0.299,0,0.449-0.15,0.449-0.449v-10.552c6.361-2.118,11.025-5.051,13.99-8.802    c2.423-3.063,3.634-6.08,3.634-9.048C201.866,103.099,199.171,98.907,193.783,96.3z" fill="#5b5b5a"/>
	</g>
</g>
<g>
</g>
<g>
</g>
<g>
</g>
<g>
</g>
<g>
</g>
<g>
</g>
<g>
</g>
<g>
</g>
<g>
</g>
<g>
</g>
<g>
</g>
<g>
</g>
<g>
</g>
<g>
</g>
<g>
</g>
</svg>
