<?xml version="1.0" encoding="iso-8859-1"?>
<!-- Generator: Adobe Illustrator 19.0.0, SVG Export Plug-In . SVG Version: 6.00 Build 0)  -->
<svg xmlns="http://www.w3.org/2000/svg" xmlns:xlink="http://www.w3.org/1999/xlink" version="1.1" id="Layer_1" x="0px" y="0px" viewBox="0 0 512.001 512.001" style="enable-background:new 0 0 512.001 512.001;" xml:space="preserve" width="512px" height="512px">
<g>
	<g>
		<rect x="223.642" y="25.292" width="19.061" height="14.771" fill="#5b5b5a"/>
	</g>
</g>
<g>
	<g>
		<path d="M108.049,25.291l-7.003-0.019c-11.136,0-20.197,9.092-20.197,20.269c0,10.676,8.343,19.562,18.993,20.229l0.924-14.742    c-2.885-0.181-5.146-2.591-5.146-5.487c0-3.031,2.434-5.498,5.405-5.498l7.004,0.019h85.113V25.291H108.049z" fill="#5b5b5a"/>
	</g>
</g>
<g>
	<g>
		<polygon points="375.649,346.404 375.649,401.712 335.933,401.712 335.933,416.482 390.42,416.482 390.42,346.404   " fill="#5b5b5a"/>
	</g>
</g>
<g>
	<g>
		<rect x="375.654" y="315.093" width="14.771" height="14.055" fill="#5b5b5a"/>
	</g>
</g>
<g>
	<g>
		<rect x="144.805" y="152.199" width="219.811" height="14.771" fill="#5b5b5a"/>
	</g>
</g>
<g>
	<g>
		<rect x="144.805" y="116.434" width="106.144" height="14.771" fill="#5b5b5a"/>
	</g>
</g>
<g>
	<g>
		<rect x="302.922" y="116.434" width="59.221" height="14.771" fill="#5b5b5a"/>
	</g>
</g>
<g>
	<g>
		<rect x="144.805" y="187.965" width="219.811" height="14.771" fill="#5b5b5a"/>
	</g>
</g>
<g>
	<g>
		<rect x="144.805" y="223.72" width="219.811" height="14.771" fill="#5b5b5a"/>
	</g>
</g>
<g>
	<g>
		<path d="M415.693,0.274V0.02H108.051L101.117,0C76.007,0,55.577,20.429,55.577,45.541c0,20.247,13.285,37.442,31.593,43.348    v352.867h117.7v70.246l46.076-18.058l46.076,18.058v-70.246h118.67v-52.111h39.781V54.818c0.621-2.994,0.95-6.094,0.95-9.268    C456.424,22.066,438.551,2.68,415.693,0.274z M70.347,45.541c0-16.967,13.804-30.77,30.749-30.77l6.932,0.019h269.33    c-7.444,8.108-11.997,18.912-11.997,30.76c0,11.848,4.553,22.652,11.997,30.76H101.117C84.151,76.31,70.347,62.508,70.347,45.541z     M207.332,384.163c-2.283-2.283-3.54-5.318-3.54-8.545c0-3.227,1.257-6.261,3.541-8.545c0.417-0.418,0.917-0.829,1.508-1.252    c4.156,6.884,9.954,12.669,16.845,16.815c-0.427,0.599-0.843,1.103-1.265,1.525c-2.282,2.283-5.317,3.539-8.544,3.539    C212.647,387.701,209.613,386.444,207.332,384.163z M250.946,306.108c18.958,0,34.382,15.424,34.382,34.382    c0,18.959-15.424,34.383-34.382,34.383c-18.959,0-34.382-15.424-34.382-34.383C216.564,321.533,231.987,306.108,250.946,306.108z     M238.863,290.949c0-6.664,5.42-12.085,12.084-12.085c6.663,0,12.084,5.421,12.084,12.085c0,0.564-0.06,1.181-0.167,1.857    c-3.817-0.954-7.807-1.468-11.915-1.468c-4.108,0-8.098,0.514-11.915,1.468C238.924,292.13,238.863,291.514,238.863,290.949z     M276.268,298.379c0.407-0.562,0.804-1.045,1.206-1.448c2.282-2.283,5.317-3.539,8.544-3.539c3.227,0,6.262,1.255,8.544,3.538    c2.283,2.283,3.54,5.318,3.54,8.545c0,3.227-1.256,6.261-3.541,8.545c-0.407,0.407-0.893,0.807-1.462,1.217    C288.949,308.34,283.159,302.538,276.268,298.379z M263.029,390.145c0,6.663-5.42,12.084-12.084,12.084    c-6.663,0-12.084-5.421-12.084-12.084c0-0.597,0.063-1.244,0.182-1.966c3.813,0.951,7.797,1.464,11.9,1.464    c4.103,0,8.088-0.513,11.9-1.464C262.967,388.901,263.029,389.548,263.029,390.145z M208.795,315.238    c-0.569-0.411-1.056-0.81-1.463-1.219c-2.283-2.282-3.539-5.316-3.539-8.544c0-3.227,1.258-6.262,3.539-8.544    c2.282-2.283,5.317-3.539,8.543-3.539c3.228,0,6.262,1.255,8.543,3.537c0.404,0.405,0.801,0.887,1.207,1.45    C218.734,302.538,212.943,308.34,208.795,315.238z M282.252,490.346l-23.92-9.375v-26.822h-14.771v26.822l-23.92,9.375v-88.139    c2.249-0.313,4.432-0.904,6.505-1.761c4.048,9.709,13.64,16.553,24.8,16.553c11.16,0,20.752-6.843,24.8-16.553    c2.073,0.858,4.256,1.448,6.505,1.761V490.346z M294.561,384.162c-2.282,2.283-5.317,3.539-8.543,3.539    c-3.228,0-6.262-1.256-8.544-3.539c-0.422-0.421-0.837-0.926-1.265-1.525c6.891-4.146,12.687-9.931,16.845-16.815    c0.59,0.422,1.089,0.833,1.509,1.253c2.283,2.282,3.539,5.316,3.539,8.543C298.101,378.845,296.844,381.88,294.561,384.162z     M400.922,426.984h-103.9V400.12c2.935-1.32,5.64-3.17,7.983-5.514c5.072-5.071,7.866-11.816,7.866-18.989    c0-3.582-0.697-7.057-2.027-10.271c9.71-4.048,16.553-13.64,16.553-24.8s-6.843-20.752-16.553-24.801    c1.329-3.213,2.027-6.688,2.027-10.271c0-7.173-2.794-13.917-7.866-18.99c-7.896-7.895-19.523-9.837-29.254-5.826    c-4.044-9.717-13.64-16.566-24.805-16.566c-11.165,0-20.761,6.849-24.805,16.566c-9.732-4.01-21.359-2.068-29.254,5.827    c-5.072,5.071-7.866,11.816-7.866,18.988c0,3.582,0.697,7.058,2.027,10.271c-9.71,4.048-16.553,13.641-16.553,24.801    s6.843,20.751,16.553,24.8c-1.329,3.213-2.027,6.688-2.027,10.271c0,7.173,2.794,13.917,7.866,18.99    c2.344,2.344,5.048,4.194,7.983,5.513v26.863H101.94V91.081h298.982V426.984z M298.646,328.637    c0.695-0.112,1.323-0.174,1.899-0.174c6.663,0,12.084,5.421,12.084,12.085c0,6.663-5.42,12.084-12.084,12.084    c-0.583,0-1.218-0.062-1.924-0.177c0.962-3.832,1.479-7.836,1.479-11.962C300.099,336.404,299.59,332.436,298.646,328.637z     M203.272,352.453c-0.706,0.115-1.341,0.177-1.924,0.177c-6.663,0-12.084-5.421-12.084-12.084c0-6.664,5.42-12.085,12.084-12.085    c0.575,0,1.203,0.062,1.899,0.174c-0.944,3.798-1.453,7.767-1.453,11.853C201.793,344.616,202.311,348.622,203.272,352.453z     M440.703,374.874h-25.01V90.826c9.512-1.001,18.153-4.949,25.01-10.904V374.874z M410.894,76.31    c-16.961,0-30.76-13.799-30.76-30.76s13.799-30.76,30.76-30.76c16.962,0,30.761,13.799,30.761,30.76S427.855,76.31,410.894,76.31z    " fill="#5b5b5a"/>
	</g>
</g>
<g>
</g>
<g>
</g>
<g>
</g>
<g>
</g>
<g>
</g>
<g>
</g>
<g>
</g>
<g>
</g>
<g>
</g>
<g>
</g>
<g>
</g>
<g>
</g>
<g>
</g>
<g>
</g>
<g>
</g>
</svg>
