<?xml version="1.0" encoding="iso-8859-1"?>
<!-- Generator: Adobe Illustrator 19.0.0, SVG Export Plug-In . SVG Version: 6.00 Build 0)  -->
<svg xmlns="http://www.w3.org/2000/svg" xmlns:xlink="http://www.w3.org/1999/xlink" version="1.1" id="Layer_1" x="0px" y="0px" viewBox="0 0 512 512" style="enable-background:new 0 0 512 512;" xml:space="preserve" width="512px" height="512px">
<g>
	<g>
		<rect x="248.694" y="205.394" width="14.605" height="9.347" fill="#5b5b5a"/>
	</g>
</g>
<g>
	<g>
		<path d="M509.153,0L509.153,0H2.847v282.956h43.313c-7.661,9.87-12.238,22.247-12.238,35.68c0,20.77,10.924,39.026,27.319,49.36    c-33.214,12.559-56.895,44.685-56.895,82.242V512h163.76h12.023h151.74h12.023h163.76v-61.761    c0-37.557-23.681-69.683-56.895-82.242c16.396-10.333,27.319-28.59,27.319-49.36c0-13.433-4.577-25.809-12.238-35.68h43.313V0z     M48.528,318.636c0-24.102,19.609-43.711,43.711-43.711c24.102,0,43.712,19.609,43.712,43.711    c0,24.102-19.61,43.711-43.712,43.711C68.136,362.347,48.528,342.738,48.528,318.636z M138.316,282.956h69.859v2.371    c-6.602,9.45-10.49,20.931-10.49,33.309c0,8.273,1.743,16.144,4.863,23.28h-51.271v43.266    c-8.114-7.37-17.609-13.241-28.042-17.186c16.396-10.333,27.32-28.59,27.32-49.36    C150.554,305.204,145.977,292.827,138.316,282.956z M388.766,367.996c-10.434,3.945-19.929,9.816-28.042,17.186v-43.266h-51.271    c3.121-7.136,4.863-15.007,4.863-23.28c0-12.377-3.888-23.858-10.49-33.309v-2.371h69.859c-7.661,9.87-12.238,22.247-12.238,35.68    C361.446,339.406,372.369,357.663,388.766,367.996z M346.118,356.521L346.118,356.521v17.88h-45.74    c-4.247-2.495-8.721-4.642-13.383-6.406c4.986-3.142,9.462-7.017,13.282-11.475H346.118z M256,362.346    c-24.102,0-43.711-19.609-43.711-43.711c0-24.102,19.609-43.711,43.711-43.711c24.102,0,43.711,19.609,43.711,43.711    C299.711,342.738,280.102,362.346,256,362.346z M225.004,367.996c-4.662,1.763-9.135,3.91-13.382,6.406h-45.74v-17.879h45.84    C215.542,360.979,220.018,364.853,225.004,367.996z M165.526,497.395L165.526,497.395H144.41v-44.598h-14.605v44.598H54.672    v-44.598H40.067v44.598H18.952v-47.156c0-40.411,32.877-73.288,73.287-73.288c40.411,0,73.288,32.877,73.288,73.288V497.395z     M174.12,418.293c-4.311-11.013-10.785-20.947-18.894-29.287h37.789C184.905,397.345,178.431,407.28,174.12,418.293z     M329.289,497.395L329.289,497.395h-21.116v-44.598h-14.605v44.598h-75.134v-44.598h-14.605v44.598h-21.116v-47.156    c0-40.411,32.877-73.288,73.288-73.288s73.288,32.877,73.288,73.288V497.395z M337.881,418.293    c-4.311-11.013-10.786-20.947-18.894-29.287h37.789C348.667,397.345,342.193,407.28,337.881,418.293z M493.048,450.239v47.156    h-21.115v-44.598h-14.605v44.598h-75.135v-44.598h-14.605v44.598h-21.114v-47.156c0-40.411,32.877-73.288,73.288-73.288    C460.172,376.951,493.048,409.828,493.048,450.239z M419.762,362.346c-24.102,0-43.711-19.609-43.711-43.711    c0-24.102,19.61-43.711,43.711-43.711c24.101,0,43.711,19.609,43.711,43.711C463.472,342.738,443.864,362.346,419.762,362.346z     M494.548,268.351h-45.307c-8.657-5.094-18.729-8.031-29.48-8.031c-10.751,0-20.824,2.937-29.48,8.031H285.48    c-8.657-5.094-18.729-8.031-29.48-8.031c-10.75,0-20.823,2.937-29.48,8.031H121.718c-8.657-5.094-18.729-8.031-29.481-8.031    c-10.75,0-20.823,2.937-29.48,8.031H17.452V14.605h477.095V268.351z" fill="#5b5b5a"/>
	</g>
</g>
<g>
	<g>
		<path d="M41.553,33.351v216.256h428.893V33.351H41.553z M307.622,232.278L307.622,232.278h-11.513v-30.645h-14.605v30.645h-51.007    v-30.645h-14.605v30.645H204.38v-32.516c0-19.978,11.415-37.328,28.059-45.906l16.259,18.639v24.98h14.605v-24.981l16.259-18.639    c16.644,8.578,28.059,25.928,28.059,45.906V232.278z M248.697,81.056v9.503l-5.696,5.676h-16.095    c3.271-13.018,15.071-22.686,29.093-22.686c14.021,0,25.822,9.669,29.093,22.686h-16.986l-4.805-5.417v-9.763H248.697z     M249.038,110.84l6.635-6.613l5.865,6.613h23.554c-3.27,13.022-15.071,22.694-29.093,22.694c-14.022,0-25.823-9.672-29.093-22.694    H249.038z M264.538,148.86L256,158.649l-8.538-9.788c2.779-0.464,5.629-0.719,8.538-0.719    C258.909,148.141,261.759,148.396,264.538,148.86z M455.841,235.001H322.226v-35.24c0-27-16.248-50.261-39.473-60.561    c10.831-8.145,17.849-21.099,17.849-35.663c0-24.589-20.008-44.594-44.602-44.594c-24.594,0-44.602,20.005-44.602,44.594    c0,14.565,7.018,27.519,17.849,35.663c-23.225,10.299-39.473,33.561-39.473,60.561v35.24H56.158V47.956h399.683V235.001z" fill="#5b5b5a"/>
	</g>
</g>
<g>
	<g>
		<rect x="88.789" y="95.205" width="14.605" height="16.055" fill="#5b5b5a"/>
	</g>
</g>
<g>
	<g>
		<rect x="96.841" y="171.375" width="14.605" height="16.055" fill="#5b5b5a"/>
	</g>
</g>
<g>
	<g>
		<rect x="144.93" y="148.863" width="14.605" height="16.056" fill="#5b5b5a"/>
	</g>
</g>
<g>
	<g>
		<rect x="159.642" y="75.293" width="14.605" height="16.055" fill="#5b5b5a"/>
	</g>
</g>
<g>
	<g>
		<rect x="406.602" y="95.205" width="14.605" height="16.055" fill="#5b5b5a"/>
	</g>
</g>
<g>
	<g>
		<rect x="398.55" y="171.375" width="14.605" height="16.055" fill="#5b5b5a"/>
	</g>
</g>
<g>
	<g>
		<rect x="350.451" y="148.863" width="14.605" height="16.056" fill="#5b5b5a"/>
	</g>
</g>
<g>
	<g>
		<rect x="335.739" y="75.293" width="14.605" height="16.055" fill="#5b5b5a"/>
	</g>
</g>
<g>
</g>
<g>
</g>
<g>
</g>
<g>
</g>
<g>
</g>
<g>
</g>
<g>
</g>
<g>
</g>
<g>
</g>
<g>
</g>
<g>
</g>
<g>
</g>
<g>
</g>
<g>
</g>
<g>
</g>
</svg>
